<svg width="1024" height="1024" viewBox="0 0 1024 1024" fill="none" xmlns="http://www.w3.org/2000/svg">
<path d="M276.861 639.229L429.113 553.75L431.661 546.3L429.113 542.182H421.667L396.194 540.614L309.192 538.261L233.752 535.124L160.663 531.203L142.244 527.282L125 504.54L126.764 493.169L142.244 482.778L164.386 484.739L213.373 488.072L286.854 493.169L340.152 496.306L419.12 504.54H431.661L433.424 499.443L429.113 496.306L425.782 493.169L349.754 441.607L267.455 387.104L224.346 355.735L201.028 339.855L189.271 324.955L184.177 292.41L205.339 269.08L233.752 271.04L241.002 273.001L269.807 295.155L331.335 342.796L411.674 402.004L423.431 411.807L428.134 408.474L428.722 406.121L423.431 397.299L379.734 318.289L333.098 237.907L312.328 204.578L306.841 184.581C304.882 176.346 303.51 169.484 303.51 161.054L327.612 128.313L340.936 124L373.072 128.313L386.592 140.076L406.579 185.757L438.911 257.709L489.074 355.539L503.77 384.555L511.608 411.415L514.547 419.649H519.642V414.944L523.757 359.853L531.399 292.214L538.845 205.166L541.392 180.66L553.541 151.251L577.643 135.371L596.454 144.39L611.934 166.544L609.779 180.856L600.569 240.652L582.542 334.366L570.785 397.103H577.643L585.481 389.261L617.225 347.109L670.523 280.451L694.037 253.984L721.47 224.772L739.105 210.852H772.417L796.91 247.318L785.937 284.96L751.646 328.484L723.233 365.342L682.476 420.237L657.003 464.153L659.354 467.682L665.428 467.094L757.525 447.489L807.296 438.47L866.668 428.275L893.513 440.823L896.453 453.566L885.871 479.641L822.384 495.326L747.923 510.226L637.016 536.497L635.644 537.477L637.212 539.438L687.179 544.143L708.537 545.319H760.856L858.242 552.573L883.716 569.434L899 590.02L896.453 605.704L857.263 625.701L804.356 613.154L680.908 583.746L638.583 573.159H632.705V576.688L667.976 611.193L732.639 669.617L813.566 744.902L817.681 763.527L807.296 778.231L796.322 776.663L725.193 723.14L697.76 699.025L635.644 646.679H631.529V652.169L645.833 673.146L721.47 786.857L725.389 821.755L719.902 833.126L700.307 839.988L678.753 836.067L634.468 773.918L588.812 703.927L551.974 641.19L547.467 643.738L525.716 878.022L515.527 889.982L492.013 899L472.418 884.1L462.033 859.985L472.418 812.344L484.959 750.195L495.148 700.79L504.358 639.425L509.845 619.035L509.453 617.663L504.946 618.251L458.702 681.773L388.356 776.859L332.706 836.459L319.382 841.752L296.26 829.793L298.415 808.423L311.348 789.406L388.356 691.379L434.796 630.603L464.776 595.509L464.58 590.412H462.817L258.246 723.336L221.799 728.041L206.123 713.337L208.083 689.223L215.529 681.381L277.057 639.033L276.861 639.229Z" fill="#D97757"/>
</svg>
